<mxfile host="app.diagrams.net" modified="2023-11-17T18:39:01.272Z" agent="Mozilla/5.0 (Windows NT 10.0; Win64; x64) AppleWebKit/537.36 (KHTML, like Gecko) Chrome/119.0.0.0 Safari/537.36 Edg/119.0.0.0" etag="qACVXQ0_ALOln3iILmlz" version="22.1.3" type="device">
  <diagram name="Page-1" id="ziJ6q1V2EKNyySOnTd3r">
    <mxGraphModel dx="746" dy="473" grid="1" gridSize="10" guides="1" tooltips="1" connect="1" arrows="1" fold="1" page="1" pageScale="1" pageWidth="1169" pageHeight="827" math="0" shadow="0">
      <root>
        <mxCell id="0" />
        <mxCell id="1" parent="0" />
        <mxCell id="1pzptEnd_b4fCYw1wkZP-5" value="" style="edgeStyle=orthogonalEdgeStyle;rounded=0;orthogonalLoop=1;jettySize=auto;html=1;" parent="1" source="1pzptEnd_b4fCYw1wkZP-1" target="1pzptEnd_b4fCYw1wkZP-4" edge="1">
          <mxGeometry relative="1" as="geometry" />
        </mxCell>
        <mxCell id="1pzptEnd_b4fCYw1wkZP-7" value="" style="edgeStyle=orthogonalEdgeStyle;rounded=0;orthogonalLoop=1;jettySize=auto;html=1;" parent="1" source="1pzptEnd_b4fCYw1wkZP-1" target="1pzptEnd_b4fCYw1wkZP-6" edge="1">
          <mxGeometry relative="1" as="geometry" />
        </mxCell>
        <mxCell id="1pzptEnd_b4fCYw1wkZP-16" value="" style="edgeStyle=orthogonalEdgeStyle;rounded=0;orthogonalLoop=1;jettySize=auto;html=1;" parent="1" source="1pzptEnd_b4fCYw1wkZP-1" target="1pzptEnd_b4fCYw1wkZP-15" edge="1">
          <mxGeometry relative="1" as="geometry" />
        </mxCell>
        <mxCell id="1pzptEnd_b4fCYw1wkZP-31" value="" style="edgeStyle=orthogonalEdgeStyle;rounded=0;orthogonalLoop=1;jettySize=auto;html=1;" parent="1" source="1pzptEnd_b4fCYw1wkZP-1" target="1pzptEnd_b4fCYw1wkZP-30" edge="1">
          <mxGeometry relative="1" as="geometry" />
        </mxCell>
        <mxCell id="1pzptEnd_b4fCYw1wkZP-35" value="" style="edgeStyle=orthogonalEdgeStyle;rounded=0;orthogonalLoop=1;jettySize=auto;html=1;" parent="1" source="1pzptEnd_b4fCYw1wkZP-1" target="1pzptEnd_b4fCYw1wkZP-34" edge="1">
          <mxGeometry relative="1" as="geometry" />
        </mxCell>
        <mxCell id="KMQs9ARjmfOlVBGJOA_2-1" style="edgeStyle=orthogonalEdgeStyle;rounded=0;orthogonalLoop=1;jettySize=auto;html=1;exitX=1;exitY=0.5;exitDx=0;exitDy=0;entryX=0;entryY=0.5;entryDx=0;entryDy=0;" parent="1" source="1pzptEnd_b4fCYw1wkZP-1" target="1pzptEnd_b4fCYw1wkZP-8" edge="1">
          <mxGeometry relative="1" as="geometry" />
        </mxCell>
        <mxCell id="KMQs9ARjmfOlVBGJOA_2-4" style="edgeStyle=orthogonalEdgeStyle;rounded=0;orthogonalLoop=1;jettySize=auto;html=1;exitX=1;exitY=0.5;exitDx=0;exitDy=0;entryX=0;entryY=0.5;entryDx=0;entryDy=0;" parent="1" source="1pzptEnd_b4fCYw1wkZP-1" target="1pzptEnd_b4fCYw1wkZP-32" edge="1">
          <mxGeometry relative="1" as="geometry" />
        </mxCell>
        <mxCell id="KMQs9ARjmfOlVBGJOA_2-14" style="edgeStyle=orthogonalEdgeStyle;rounded=0;orthogonalLoop=1;jettySize=auto;html=1;entryX=1;entryY=0.5;entryDx=0;entryDy=0;" parent="1" source="1pzptEnd_b4fCYw1wkZP-1" target="KMQs9ARjmfOlVBGJOA_2-13" edge="1">
          <mxGeometry relative="1" as="geometry" />
        </mxCell>
        <mxCell id="1pzptEnd_b4fCYw1wkZP-1" value="&lt;h1&gt;Deaths by Police shootings&lt;/h1&gt;&lt;p&gt;What the data showing can help to reduce the number of deaths in the future?&amp;nbsp;&lt;/p&gt;" style="text;html=1;strokeColor=none;fillColor=none;spacing=5;spacingTop=-20;whiteSpace=wrap;overflow=hidden;rounded=0;" parent="1" vertex="1">
          <mxGeometry x="410" y="344" width="350" height="120" as="geometry" />
        </mxCell>
        <mxCell id="1pzptEnd_b4fCYw1wkZP-21" value="" style="edgeStyle=orthogonalEdgeStyle;rounded=0;orthogonalLoop=1;jettySize=auto;html=1;" parent="1" source="1pzptEnd_b4fCYw1wkZP-4" target="1pzptEnd_b4fCYw1wkZP-20" edge="1">
          <mxGeometry relative="1" as="geometry" />
        </mxCell>
        <mxCell id="1pzptEnd_b4fCYw1wkZP-23" value="" style="edgeStyle=orthogonalEdgeStyle;rounded=0;orthogonalLoop=1;jettySize=auto;html=1;" parent="1" source="1pzptEnd_b4fCYw1wkZP-4" target="1pzptEnd_b4fCYw1wkZP-22" edge="1">
          <mxGeometry relative="1" as="geometry" />
        </mxCell>
        <mxCell id="1pzptEnd_b4fCYw1wkZP-25" value="" style="edgeStyle=orthogonalEdgeStyle;rounded=0;orthogonalLoop=1;jettySize=auto;html=1;" parent="1" source="1pzptEnd_b4fCYw1wkZP-4" target="1pzptEnd_b4fCYw1wkZP-24" edge="1">
          <mxGeometry relative="1" as="geometry" />
        </mxCell>
        <mxCell id="1pzptEnd_b4fCYw1wkZP-27" value="" style="edgeStyle=orthogonalEdgeStyle;rounded=0;orthogonalLoop=1;jettySize=auto;html=1;" parent="1" source="1pzptEnd_b4fCYw1wkZP-4" target="1pzptEnd_b4fCYw1wkZP-26" edge="1">
          <mxGeometry relative="1" as="geometry" />
        </mxCell>
        <mxCell id="1pzptEnd_b4fCYw1wkZP-29" value="" style="edgeStyle=orthogonalEdgeStyle;rounded=0;orthogonalLoop=1;jettySize=auto;html=1;" parent="1" source="1pzptEnd_b4fCYw1wkZP-4" target="1pzptEnd_b4fCYw1wkZP-28" edge="1">
          <mxGeometry relative="1" as="geometry" />
        </mxCell>
        <mxCell id="1pzptEnd_b4fCYw1wkZP-4" value="The number of deaths drop nearly half between 2016 to 2017? What happened?&amp;nbsp;" style="whiteSpace=wrap;html=1;" parent="1" vertex="1">
          <mxGeometry x="525" y="494" width="120" height="80" as="geometry" />
        </mxCell>
        <mxCell id="1pzptEnd_b4fCYw1wkZP-6" value="Will higher income result in lower the number of death?&amp;nbsp;" style="whiteSpace=wrap;html=1;" parent="1" vertex="1">
          <mxGeometry x="800" y="374" width="120" height="60" as="geometry" />
        </mxCell>
        <mxCell id="1pzptEnd_b4fCYw1wkZP-8" value="Is higher graduate rate states have low deaths?&amp;nbsp;" style="whiteSpace=wrap;html=1;" parent="1" vertex="1">
          <mxGeometry x="800" y="448" width="120" height="60" as="geometry" />
        </mxCell>
        <mxCell id="1pzptEnd_b4fCYw1wkZP-15" value="Higher poverty rate lead to higher death number?&amp;nbsp;" style="whiteSpace=wrap;html=1;" parent="1" vertex="1">
          <mxGeometry x="800" y="304" width="120" height="60" as="geometry" />
        </mxCell>
        <mxCell id="1pzptEnd_b4fCYw1wkZP-20" value="Is number of body camera turned on increased?&amp;nbsp;" style="whiteSpace=wrap;html=1;" parent="1" vertex="1">
          <mxGeometry x="390" y="604" width="120" height="60" as="geometry" />
        </mxCell>
        <mxCell id="1pzptEnd_b4fCYw1wkZP-22" value="Is there less mental illness suspector?" style="whiteSpace=wrap;html=1;" parent="1" vertex="1">
          <mxGeometry x="525" y="604" width="120" height="60" as="geometry" />
        </mxCell>
        <mxCell id="1pzptEnd_b4fCYw1wkZP-24" value="Type of threat change?&amp;nbsp;" style="whiteSpace=wrap;html=1;" parent="1" vertex="1">
          <mxGeometry x="660" y="604" width="120" height="60" as="geometry" />
        </mxCell>
        <mxCell id="1pzptEnd_b4fCYw1wkZP-26" value="Is the armed type change?&amp;nbsp;" style="whiteSpace=wrap;html=1;" parent="1" vertex="1">
          <mxGeometry x="800" y="604" width="120" height="60" as="geometry" />
        </mxCell>
        <mxCell id="1pzptEnd_b4fCYw1wkZP-28" value="Is the flee type change?&amp;nbsp;" style="whiteSpace=wrap;html=1;" parent="1" vertex="1">
          <mxGeometry x="250" y="604" width="120" height="60" as="geometry" />
        </mxCell>
        <mxCell id="1pzptEnd_b4fCYw1wkZP-30" value="Is race play a part?" style="whiteSpace=wrap;html=1;" parent="1" vertex="1">
          <mxGeometry x="200" y="420" width="120" height="60" as="geometry" />
        </mxCell>
        <mxCell id="1pzptEnd_b4fCYw1wkZP-32" value="Why some states has extremely high number of death?" style="whiteSpace=wrap;html=1;" parent="1" vertex="1">
          <mxGeometry x="800" y="234" width="120" height="60" as="geometry" />
        </mxCell>
        <mxCell id="1pzptEnd_b4fCYw1wkZP-37" value="" style="edgeStyle=orthogonalEdgeStyle;rounded=0;orthogonalLoop=1;jettySize=auto;html=1;" parent="1" source="1pzptEnd_b4fCYw1wkZP-34" target="1pzptEnd_b4fCYw1wkZP-36" edge="1">
          <mxGeometry relative="1" as="geometry" />
        </mxCell>
        <mxCell id="1pzptEnd_b4fCYw1wkZP-38" value="" style="edgeStyle=orthogonalEdgeStyle;rounded=0;orthogonalLoop=1;jettySize=auto;html=1;" parent="1" source="1pzptEnd_b4fCYw1wkZP-34" target="1pzptEnd_b4fCYw1wkZP-36" edge="1">
          <mxGeometry relative="1" as="geometry" />
        </mxCell>
        <mxCell id="1pzptEnd_b4fCYw1wkZP-39" value="" style="edgeStyle=orthogonalEdgeStyle;rounded=0;orthogonalLoop=1;jettySize=auto;html=1;" parent="1" source="1pzptEnd_b4fCYw1wkZP-34" target="1pzptEnd_b4fCYw1wkZP-36" edge="1">
          <mxGeometry relative="1" as="geometry" />
        </mxCell>
        <mxCell id="1pzptEnd_b4fCYw1wkZP-41" value="" style="edgeStyle=orthogonalEdgeStyle;rounded=0;orthogonalLoop=1;jettySize=auto;html=1;" parent="1" source="1pzptEnd_b4fCYw1wkZP-34" target="1pzptEnd_b4fCYw1wkZP-40" edge="1">
          <mxGeometry relative="1" as="geometry" />
        </mxCell>
        <mxCell id="1pzptEnd_b4fCYw1wkZP-34" value="Is the on duty officer respond to the threat level accordingly?" style="whiteSpace=wrap;html=1;" parent="1" vertex="1">
          <mxGeometry x="525" y="264" width="120" height="60" as="geometry" />
        </mxCell>
        <mxCell id="KMQs9ARjmfOlVBGJOA_2-15" style="edgeStyle=orthogonalEdgeStyle;rounded=0;orthogonalLoop=1;jettySize=auto;html=1;exitX=0.5;exitY=0;exitDx=0;exitDy=0;" parent="1" source="1pzptEnd_b4fCYw1wkZP-36" target="KMQs9ARjmfOlVBGJOA_2-6" edge="1">
          <mxGeometry relative="1" as="geometry" />
        </mxCell>
        <mxCell id="1pzptEnd_b4fCYw1wkZP-36" value="When victims attack" style="whiteSpace=wrap;html=1;" parent="1" vertex="1">
          <mxGeometry x="610" y="164" width="120" height="60" as="geometry" />
        </mxCell>
        <mxCell id="KMQs9ARjmfOlVBGJOA_2-7" value="" style="edgeStyle=orthogonalEdgeStyle;rounded=0;orthogonalLoop=1;jettySize=auto;html=1;" parent="1" source="1pzptEnd_b4fCYw1wkZP-40" target="KMQs9ARjmfOlVBGJOA_2-6" edge="1">
          <mxGeometry relative="1" as="geometry" />
        </mxCell>
        <mxCell id="1pzptEnd_b4fCYw1wkZP-40" value="When victims&#39; action were other than attach" style="whiteSpace=wrap;html=1;" parent="1" vertex="1">
          <mxGeometry x="440" y="164" width="120" height="60" as="geometry" />
        </mxCell>
        <mxCell id="KMQs9ARjmfOlVBGJOA_2-6" value="what are the armed type?" style="whiteSpace=wrap;html=1;" parent="1" vertex="1">
          <mxGeometry x="525" y="60" width="120" height="60" as="geometry" />
        </mxCell>
        <mxCell id="KMQs9ARjmfOlVBGJOA_2-13" value="What is the age group distribution looks like?&amp;nbsp;" style="whiteSpace=wrap;html=1;" parent="1" vertex="1">
          <mxGeometry x="200" y="330" width="120" height="60" as="geometry" />
        </mxCell>
      </root>
    </mxGraphModel>
  </diagram>
</mxfile>
